<svg xmlns="http://www.w3.org/2000/svg" width="20.299" height="12.184">
    <path data-name="Icon awesome-handshake" d="M13.788 4.5h-2.725a1.015 1.015 0 0 0-.685.266L7.26 7.621s-.006.01-.01.013a1.262 1.262 0 0 0-.066 1.776 1.323 1.323 0 0 0 1.779.09s.01 0 .013-.006l2.534-2.327a.507.507 0 1 1 .685.749l-.828.758 4.618 3.749a2.286 2.286 0 0 1 .251.244V6.53L14.5 4.8a1.008 1.008 0 0 0-.717-.3zm3.467 2.036v7.1a1.014 1.014 0 0 0 1.015 1.015h2.03V6.536zm1.522 7.1a.507.507 0 1 1 .507-.507.509.509 0 0 1-.507.509zM0 14.649h2.03a1.014 1.014 0 0 0 1.015-1.015v-7.1H0zm1.522-2.027a.507.507 0 1 1-.507.507.509.509 0 0 1 .507-.506zm13.826.59-4.735-3.843-.952.872a2.283 2.283 0 1 1-3.086-3.365L9.17 4.5H6.512a1.013 1.013 0 0 0-.717.3L4.06 6.53v7.1h.58l2.87 2.6a2.03 2.03 0 0 0 2.855-.295l.006-.006.568.492a1.179 1.179 0 0 0 1.659-.171l1-1.224.171.14a1.013 1.013 0 0 0 1.427-.149l.3-.371a1.017 1.017 0 0 0-.146-1.43z" transform="translate(0 -4.5)" style="fill:#919399"/>
</svg>
