<svg xmlns="http://www.w3.org/2000/svg" width="15.019" height="15.019">
    <path d="M3.834 11.344h5.007a.834.834 0 0 0 .834-.834V3.834A.834.834 0 0 0 8.841 3H3.834A.834.834 0 0 0 3 3.834v6.676a.834.834 0 0 0 .834.834zM3 17.185a.834.834 0 0 0 .834.834h5.007a.834.834 0 0 0 .834-.834v-3.338a.834.834 0 0 0-.834-.834H3.834a.834.834 0 0 0-.834.834zm8.344 0a.834.834 0 0 0 .834.834h5.006a.834.834 0 0 0 .834-.834v-5.841a.834.834 0 0 0-.834-.834h-5.005a.834.834 0 0 0-.834.834zm.834-8.344h5.006a.834.834 0 0 0 .834-.834V3.834A.834.834 0 0 0 17.185 3h-5.006a.834.834 0 0 0-.834.834v4.172a.834.834 0 0 0 .834.835z" transform="translate(-3 -3)" style="fill:#801323"/>
</svg>
