<svg xmlns="http://www.w3.org/2000/svg" width="14.863" height="19.818">
    <path data-name="Icon awesome-clipboard-list" d="M13.005 2.477h-3.1a2.477 2.477 0 0 0-4.954 0h-3.1A1.858 1.858 0 0 0 0 4.335V17.96a1.858 1.858 0 0 0 1.858 1.858h11.147a1.858 1.858 0 0 0 1.858-1.858V4.335a1.858 1.858 0 0 0-1.858-1.858zM3.716 16.412a.929.929 0 1 1 .929-.929.927.927 0 0 1-.929.929zm0-3.716a.929.929 0 1 1 .929-.929.927.927 0 0 1-.929.933zm0-3.716a.929.929 0 1 1 .929-.929.927.927 0 0 1-.929.929zm3.716-7.432a.929.929 0 1 1-.929.929.927.927 0 0 1 .929-.929zm4.954 14.244a.311.311 0 0 1-.31.31H6.5a.311.311 0 0 1-.31-.31v-.619a.311.311 0 0 1 .31-.31h5.574a.311.311 0 0 1 .31.31zm0-3.716a.311.311 0 0 1-.31.31H6.5a.311.311 0 0 1-.31-.31v-.619a.311.311 0 0 1 .31-.31h5.574a.311.311 0 0 1 .31.31zm0-3.716a.311.311 0 0 1-.31.31H6.5a.311.311 0 0 1-.31-.31v-.619a.311.311 0 0 1 .31-.31h5.574a.311.311 0 0 1 .31.31z" style="fill:#919399"/>
</svg>
