<svg xmlns="http://www.w3.org/2000/svg" width="19.706" height="11.828">
    <path data-name="Icon awesome-signature" d="M19.2 8.442c-1.6.108-3.872 1.685-5.024 2.2a6.375 6.375 0 0 1-2.344.752c-.7 0-.8-.5-.656-1.6.034-.246.36-2.439-1.315-2.344-.773.046-1.98.764-5.221 3.881L5.915 8.14A2.661 2.661 0 0 0 1.92 4.974L.229 6.11a.5.5 0 0 0-.151.681l.53.832a.49.49 0 0 0 .681.151l1.786-1.2a.688.688 0 0 1 1.007.835l-3.024 7.566a.984.984 0 0 0 .915 1.352.974.974 0 0 0 .7-.29c1.3-1.3 4.765-4.642 6.505-6.031a3.2 3.2 0 0 0 .634 2.581 2.6 2.6 0 0 0 2.017.779 7.789 7.789 0 0 0 3.151-.924c1.016-.456 3.049-1.928 4.263-2.027a.494.494 0 0 0 .468-.487v-.987a.489.489 0 0 0-.511-.5z" transform="translate(-.002 -4.499)" style="fill:#919399"/>
</svg>
