<svg xmlns="http://www.w3.org/2000/svg" width="14.863" height="17.836">
    <path data-name="Icon material-contacts" d="M16.377 0H4.486v1.486h11.891zM4.486 17.836h11.891V16.35H4.486zM16.377 2.973H4.486A1.491 1.491 0 0 0 3 4.459v8.918a1.491 1.491 0 0 0 1.486 1.486h11.891a1.491 1.491 0 0 0 1.486-1.486V4.459a1.491 1.491 0 0 0-1.486-1.486zm-5.945 2.043A1.672 1.672 0 1 1 8.76 6.688a1.675 1.675 0 0 1 1.672-1.672zm3.716 7.617H6.716v-1.114c0-1.241 2.475-1.858 3.716-1.858s3.716.617 3.716 1.858z" transform="translate(-3)" style="fill:#919399"/>
</svg>
