<svg xmlns="http://www.w3.org/2000/svg" width="15.512" height="15.516">
    <path data-name="Icon ionic-ios-settings" d="M18.731 12.256a2 2 0 0 1 1.281-1.862 7.912 7.912 0 0 0-.957-2.307 2.023 2.023 0 0 1-.812.174 1.992 1.992 0 0 1-1.822-2.8 7.888 7.888 0 0 0-2.3-.957 1.994 1.994 0 0 1-3.724 0 7.912 7.912 0 0 0-2.307.957 1.992 1.992 0 0 1-1.822 2.8 1.957 1.957 0 0 1-.812-.174A8.087 8.087 0 0 0 4.5 10.4a2 2 0 0 1 0 3.724 7.912 7.912 0 0 0 .957 2.307 1.992 1.992 0 0 1 2.63 2.63 7.958 7.958 0 0 0 2.307.957 1.991 1.991 0 0 1 3.716 0 7.912 7.912 0 0 0 2.307-.957 1.994 1.994 0 0 1 2.63-2.63 7.958 7.958 0 0 0 .957-2.307 2.006 2.006 0 0 1-1.273-1.868zm-6.439 3.228a3.232 3.232 0 1 1 3.232-3.232 3.231 3.231 0 0 1-3.232 3.231z" transform="translate(-4.5 -4.5)" style="fill:#919399"/>
</svg>
